<svg id="Layer_1" data-name="Layer 1" xmlns="http://www.w3.org/2000/svg" viewBox="0 0 1256.5227 241.036"><defs><style>.cls-1{fill:#c00;}.cls-2{fill:#95989a;}</style></defs><title>u-engineering-logo</title><g id="_100" data-name="100"><polygon class="cls-1" points="0 0 0 68.817 22.848 68.817 22.848 183.058 68.817 228.483 182.786 228.483 228.483 183.058 228.483 68.817 251.603 68.817 251.603 0 137.09 0 137.09 68.817 160.21 68.817 160.21 159.938 91.393 159.938 91.393 68.817 114.241 68.817 114.241 0 0 0"/><path class="cls-1" d="M219.7788,214.3387a9.2522,9.2522,0,1,1-8.9761,9.2481,8.7858,8.7858,0,0,1,8.9761-9.2481Zm0,1.36a7.7634,7.7634,0,1,0,7.3441,7.8881c0-4.08-3.264-7.8881-7.3441-7.8881Zm-1.904,13.0562h-1.632V218.4188c.816,0,1.632-.272,2.992-.272a5.229,5.229,0,0,1,3.264.816,2.6774,2.6774,0,0,1,.816,2.176,2.3827,2.3827,0,0,1-1.904,2.448h0a2.4662,2.4662,0,0,1,1.632,2.448c.272,1.632.544,2.176.544,2.448h-1.632a8.0155,8.0155,0,0,1-.816-2.72c-.272-1.36-.816-1.904-2.176-1.904h-1.088Zm0-5.7121h1.088c1.36,0,2.448-.544,2.448-1.632,0-.816-.544-1.904-2.448-1.904h-1.088Z"/><path d="M339.6846,122.741H319.8438v12.8008h22.16v10h-34.4V91.6209h33.28v10h-21.04v11.2h19.8408Z"/><path d="M350.3233,91.6209h12.24v43.6807h21.44v10.24H350.3233Z"/><path d="M423.2833,122.741H403.4424v12.8008h22.16v10h-34.4V91.6209h33.28v10h-21.04v11.2h19.8408Z"/><path d="M473.5225,144.0213c-2.24,1.12-7.28,2.32-13.84,2.32-18.6406,0-28.2412-11.6-28.2412-26.96,0-18.4,13.12-28.6406,29.4414-28.6406,6.3193,0,11.12,1.2793,13.28,2.3994l-2.48,9.6807a26.3333,26.3333,0,0,0-10.24-2c-9.6807,0-17.2,5.84-17.2,17.84,0,10.8008,6.4,17.6006,17.28,17.6006a30.47,30.47,0,0,0,10.16-1.76Z"/><path d="M493.04,101.8611H478.56v-10.24H520v10.24H505.28v43.6807H493.04Z"/><path d="M526.48,92.3406a107.1807,107.1807,0,0,1,16.24-1.12c8,0,13.6006,1.2,17.44,4.24,3.2,2.56,4.96,6.32,4.96,11.28a14.3085,14.3085,0,0,1-9.5205,13.28v.24c3.7607,1.52,5.8408,5.12,7.2,10.08,1.6807,6.08,3.36,13.12,4.4,15.2H554.72c-.88-1.5205-2.16-5.92-3.76-12.5605-1.44-6.72-3.76-8.56-8.7207-8.64h-3.68v21.2H526.48Zm12.08,23.2h4.8c6.08,0,9.6807-3.04,9.6807-7.76,0-4.96-3.36-7.44-8.96-7.5205a30.4159,30.4159,0,0,0-5.5205.4Z"/><path d="M586.1583,91.6209v53.9209h-12.24V91.6209Z"/><path d="M636.3184,144.0213c-2.24,1.12-7.28,2.32-13.84,2.32-18.6406,0-28.2412-11.6-28.2412-26.96,0-18.4,13.12-28.6406,29.4414-28.6406,6.3193,0,11.12,1.2793,13.28,2.3994l-2.48,9.6807a26.3333,26.3333,0,0,0-10.24-2c-9.6807,0-17.2,5.84-17.2,17.84,0,10.8008,6.4,17.6006,17.28,17.6006a30.47,30.47,0,0,0,10.16-1.76Z"/><path d="M657.6768,131.7019l-3.8408,13.84h-12.64l16.48-53.9209h16l16.7207,53.9209H677.2764l-4.1592-13.84Zm13.68-9.1211-3.36-11.4395c-.96-3.2-1.92-7.2-2.72-10.4h-.16c-.8,3.2-1.6,7.28-2.4795,10.4l-3.2,11.4395Z"/><path d="M697.5948,91.6209h12.24v43.6807h21.44v10.24H697.5948Z"/><path d="M788.9542,145.5418c-1.12-1.2-2.2393-2.4-3.52-3.84a23.6713,23.6713,0,0,1-14.8008,4.72c-13.04,0-18.8-7.76-18.8-15.28,0-7.12,4.08-12.24,10.24-15.44v-.32a16.3159,16.3159,0,0,1-4.08-10.3994c0-6.8008,5.3594-14.24,16.16-14.24,8.32,0,14.64,4.88,14.64,12.64,0,5.44-3.1992,10.08-10.64,13.8408l-.08.3193c3.12,3.44,6.4,7.36,9.04,10.08a35.3518,35.3518,0,0,0,4.5605-13.12h10.88c-1.44,8.16-4.16,15.1211-8.96,20.48,3.04,3.44,6.16,6.9609,9.5205,10.5605Zm-9.2-10.6406c-3.3594-3.3594-7.76-8.24-12.16-13.2-2.24,1.6006-4.24,3.92-4.24,7.44,0,4.5605,3.44,8.48,8.9609,8.48A10.8633,10.8633,0,0,0,779.754,134.9011Zm-10.88-31.04c0,2.72,1.28,5.12,3.68,7.76,3.9209-2.72,5.9209-4.8,5.9209-7.92,0-2.5605-1.5205-5.36-4.7207-5.36C770.6338,98.3406,768.8741,101.06,768.8741,103.8611Z"/><path d="M880.793,144.0213c-2.24,1.12-7.28,2.32-13.84,2.32-18.6406,0-28.2412-11.6-28.2412-26.96,0-18.4,13.12-28.6406,29.4414-28.6406,6.3193,0,11.12,1.2793,13.28,2.3994l-2.48,9.6807a26.3333,26.3333,0,0,0-10.24-2c-9.6807,0-17.2,5.84-17.2,17.84,0,10.8008,6.4,17.6006,17.28,17.6006a30.47,30.47,0,0,0,10.16-1.76Z"/><path d="M935.753,118.0213c0,17.6807-10.7207,28.4-26.4814,28.4-16,0-25.36-12.08-25.36-27.44,0-16.16,10.32-28.24,26.2412-28.24C926.712,90.741,935.753,103.14,935.753,118.0213Zm-38.9609.72c0,10.5605,4.96,18.001,13.12,18.001,8.24,0,12.96-7.8408,12.96-18.3213,0-9.68-4.64-18-13.04-18C901.5919,100.4207,896.792,108.2605,896.792,118.741Z"/><path d="M989.3516,124.9011c-.2393-6.48-.4795-14.32-.4795-22.16h-.24c-1.68,6.88-3.92,14.5605-6,20.88l-6.5605,21.041h-9.52l-5.7607-20.8809c-1.76-6.32-3.6-14-4.88-21.04h-.16c-.32,7.28-.56,15.6006-.96,22.32l-.96,20.48h-11.28l3.44-53.9209h16.24l5.28,18c1.68,6.24,3.3594,12.96,4.56,19.28h.24c1.52-6.24,3.36-13.36,5.12-19.36l5.76-17.92h15.9209l2.96,53.9209h-11.92Z"/><path d="M1011.4307,92.3406a99.8471,99.8471,0,0,1,16.48-1.12c7.52,0,12.88,1.44,16.48,4.32a15.7651,15.7651,0,0,1,5.76,12.48c0,5.2793-1.76,9.76-4.96,12.8-4.16,3.92-10.32,5.6807-17.5205,5.6807a30.68,30.68,0,0,1-4.16-.24v19.28h-12.08Zm12.08,24.48a18.6211,18.6211,0,0,0,4.08.32c6.48,0,10.48-3.28,10.48-8.8008,0-4.96-3.44-7.92-9.5205-7.92a20.7551,20.7551,0,0,0-5.04.48Z"/><path d="M1070.07,91.6209v31.04c0,9.28,3.5205,14.001,9.76,14.001,6.4,0,9.9209-4.48,9.9209-14.001v-31.04h12.16v30.24c0,16.6406-8.4,24.5605-22.48,24.5605-13.6006,0-21.6006-7.5205-21.6006-24.7207v-30.08Z"/><path d="M1122.87,101.8611h-14.48v-10.24h41.44v10.24h-14.72v43.6807h-12.24Z"/><path d="M1188.39,122.741h-19.8408v12.8008h22.16v10h-34.4V91.6209h33.28v10h-21.04v11.2H1188.39Z"/><path d="M1199.0284,92.3406a107.1807,107.1807,0,0,1,16.24-1.12c8,0,13.6006,1.2,17.44,4.24,3.2,2.56,4.96,6.32,4.96,11.28a14.3085,14.3085,0,0,1-9.5205,13.28v.24c3.7607,1.52,5.8408,5.12,7.2,10.08,1.6807,6.08,3.36,13.12,4.4,15.2h-12.48c-.88-1.5205-2.16-5.92-3.76-12.5605-1.44-6.72-3.76-8.56-8.7207-8.64h-3.68v21.2h-12.08Zm12.08,23.2h4.8c6.08,0,9.6807-3.04,9.6807-7.76,0-4.96-3.36-7.44-8.96-7.5205a30.4159,30.4159,0,0,0-5.5205.4Z"/><path class="cls-2" d="M322.3985,41.5115c0,4.93,0,8.9854.2568,11.1426.1533,1.4893.4619,2.6182,2.002,2.8242a22.43,22.43,0,0,0,2.3105.2051c.3086,0,.4111.1543.4111.3076,0,.2568-.2568.4111-.8213.4111-2.8242,0-6.06-.1543-6.3154-.1543s-3.4922.1543-5.0322.1543c-.5645,0-.8213-.1025-.8213-.4111,0-.1533.1025-.3076.41-.3076a7.9544,7.9544,0,0,0,1.541-.2051c1.0264-.2061,1.2832-1.335,1.4883-2.8242.2568-2.1572.2568-6.2129.2568-11.1426V19.7927l-7.5986.1025c-3.1836.0518-4.416.4111-5.2373,1.6426a9.0141,9.0141,0,0,0-.873,1.5918c-.1543.4111-.3086.5137-.5137.5137-.1543,0-.2568-.1543-.2568-.4619,0-.5137,1.0273-4.93,1.13-5.34.1025-.3086.3076-.9756.5137-.9756a9.58,9.58,0,0,0,2.2588.6162c1.4893.1533,3.44.2568,4.0566.2568h19.2549a20.6011,20.6011,0,0,0,3.6455-.2568c.77-.1025,1.2324-.2568,1.4375-.2568.2568,0,.2568.3076.2568.6162,0,1.54-.1543,5.083-.1543,5.6475,0,.4629-.1543.668-.3594.668-.2568,0-.3594-.1543-.4111-.873l-.0508-.5645c-.1543-1.541-1.3867-2.7217-6.3154-2.8242l-6.47-.1025Z"/><path class="cls-2" d="M377.9493,41.5115c0,4.93,0,8.9854.2568,11.1426.1543,1.4893.4619,2.6182,2.0029,2.8242a22.4066,22.4066,0,0,0,2.3105.2051c.3076,0,.41.1543.41.3076,0,.2568-.2568.4111-.8213.4111-2.8242,0-6.0586-.1543-6.3154-.1543s-3.4912.1543-5.0322.1543c-.5645,0-.8213-.1025-.8213-.4111,0-.1533.1025-.3076.4111-.3076a7.9347,7.9347,0,0,0,1.54-.2051c1.0264-.2061,1.2832-1.335,1.4893-2.8242.2568-2.1572.2568-6.2129.2568-11.1426V36.1209a.2963.2963,0,0,0-.3086-.3086H351.5577a.2709.2709,0,0,0-.3086.3086v5.3906c0,4.93,0,8.9854.2568,11.1426.1543,1.4893.4619,2.6182,2.0029,2.8242a22.4066,22.4066,0,0,0,2.3105.2051c.3076,0,.41.1543.41.3076,0,.2568-.2568.4111-.8213.4111-2.8242,0-6.0586-.1543-6.3154-.1543s-3.4912.1543-5.0322.1543c-.5645,0-.8213-.1025-.8213-.4111,0-.1533.1025-.3076.4111-.3076a7.9347,7.9347,0,0,0,1.54-.2051c1.0273-.2061,1.2832-1.335,1.4893-2.8242.2568-2.1572.2568-6.2129.2568-11.1426V32.4754c0-8.0107,0-9.4482-.1025-11.0908-.1035-1.7461-.5137-2.5674-2.208-2.9268a9.624,9.624,0,0,0-1.7461-.1543c-.2051,0-.4111-.1025-.4111-.3076,0-.3086.2568-.4111.8223-.4111,2.3105,0,5.5449.1543,5.8018.1543s3.4912-.1543,5.0322-.1543c.5645,0,.8213.1025.8213.4111,0,.2051-.2051.3076-.4111.3076a7.6523,7.6523,0,0,0-1.2832.1543c-1.3867.2568-1.7969,1.1289-1.9,2.9268-.1025,1.6426-.1025,3.08-.1025,11.0908v1.0781a.27.27,0,0,0,.3086.3076h21.7705a.27.27,0,0,0,.3086-.3076V32.4754c0-8.0107,0-9.4482-.1035-11.0908-.1025-1.7461-.5127-2.5674-2.207-2.9268a9.624,9.624,0,0,0-1.7461-.1543c-.2051,0-.4111-.1025-.4111-.3076,0-.3086.2568-.4111.8213-.4111,2.3115,0,5.5459.1543,5.8027.1543s3.4912-.1543,5.0313-.1543c.5654,0,.8223.1025.8223.4111,0,.2051-.2061.3076-.4111.3076a7.6523,7.6523,0,0,0-1.2832.1543c-1.3867.2568-1.7979,1.1289-1.9,2.9268-.1025,1.6426-.1025,3.08-.1025,11.0908Z"/><path class="cls-2" d="M396.2208,32.4754c0-8.0107,0-9.4482-.1025-11.0908-.1025-1.7461-.5137-2.5674-2.208-2.9268a9.624,9.624,0,0,0-1.7461-.1543c-.2051,0-.41-.1025-.41-.3076,0-.3086.2568-.4111.8213-.4111,1.1807,0,2.5674,0,3.6963.0508l2.1055.1035c.3594,0,10.5771,0,11.7588-.0518a13.7343,13.7343,0,0,0,2.207-.2568c.2568-.0508.4629-.2568.72-.2568.1533,0,.2051.2061.2051.4619,0,.36-.2568.9756-.4111,2.4141-.0508.5127-.1543,2.7725-.2568,3.3887-.0508.2568-.1533.5645-.3594.5645-.3076,0-.41-.2568-.41-.667a5.5112,5.5112,0,0,0-.3086-1.8486c-.3594-.8213-.873-1.4375-3.6455-1.7461-.873-.1025-6.47-.1543-7.0342-.1543-.2051,0-.3086.1543-.3086.5137V34.2722c0,.3594.0518.5137.3086.5137.667,0,6.9834,0,8.1641-.1035,1.2324-.1025,1.9512-.2051,2.4131-.7187.3594-.41.5645-.667.7705-.667.1533,0,.2568.1025.2568.41s-.2568,1.1816-.4111,2.876c-.1025,1.0264-.2051,2.9268-.2051,3.2861,0,.41,0,.9756-.3594.9756-.2568,0-.3594-.2061-.3594-.4619a5.2235,5.2235,0,0,0-.2061-1.6943c-.2051-.72-.667-1.5918-2.67-1.7979-1.3857-.1533-6.47-.2568-7.3418-.2568a.3251.3251,0,0,0-.36.3594v4.5186c0,1.7461-.0508,7.7021,0,8.78.1543,3.543.9248,4.2109,5.957,4.2109a14.7084,14.7084,0,0,0,4.9287-.5654c1.335-.5645,1.9512-1.5918,2.3105-3.6963.1025-.5654.2051-.7705.4619-.7705.3086,0,.3086.4111.3086.7705,0,.41-.4111,3.9023-.668,4.98-.3594,1.335-.77,1.335-2.7725,1.335-3.8506,0-6.6748-.1025-8.6777-.1543-2.002-.1025-3.2344-.1543-4.0049-.1543-.1025,0-.9756,0-2.0537.0518-1.0273,0-2.208.1025-2.9775.1025-.5654,0-.8223-.1025-.8223-.4111,0-.1533.1025-.3076.4111-.3076a7.9347,7.9347,0,0,0,1.54-.2051c1.0273-.2061,1.2842-1.335,1.4893-2.8242.2568-2.1572.2568-6.2129.2568-11.1426Z"/><path class="cls-2" d="M441.2432,32.4754c0-8.0107,0-9.4482-.1025-11.0908-.1025-1.7461-.5137-2.5674-2.208-2.9268a9.6053,9.6053,0,0,0-1.7451-.1543c-.2061,0-.4111-.1025-.4111-.3076,0-.3086.2568-.4111.8213-.4111,2.3105,0,5.4434.1543,5.9053.1543s3.543-.1543,5.083-.1543c.5645,0,.8213.1025.8213.4111,0,.2051-.2051.3076-.41.3076a7.6614,7.6614,0,0,0-1.2842.1543c-1.3857.2051-1.7969,1.1289-1.8994,2.9268-.1025,1.6426-.1025,3.08-.1025,11.0908v7.1885c0,7.3936,1.6426,10.5771,3.8506,12.6816a10.0447,10.0447,0,0,0,7.7529,2.8242,10.7856,10.7856,0,0,0,8.0615-3.6973c2.3623-2.9258,2.9785-7.291,2.9785-12.5791v-6.418c0-8.0107,0-9.4482-.1035-11.0908-.1025-1.7461-.5127-2.5674-2.207-2.9268a9.624,9.624,0,0,0-1.7461-.1543c-.2051,0-.4111-.1025-.4111-.3076,0-.3086.2568-.4111.8223-.4111,2.3105,0,5.1338.1543,5.4424.1543.3594,0,2.7725-.1543,4.3125-.1543.5654,0,.8223.1025.8223.4111,0,.2051-.2061.3076-.4111.3076a7.6523,7.6523,0,0,0-1.2832.1543c-1.3867.3076-1.7979,1.1289-1.9,2.9268-.1025,1.6426-.1025,3.08-.1025,11.0908v5.4932c0,5.5459-.6162,11.707-4.7236,15.3525a15.0409,15.0409,0,0,1-10.5771,3.8c-1.7461,0-6.9316-.2051-10.5771-3.6455-2.5166-2.4131-4.4678-6.0078-4.4678-13.5039Z"/><path class="cls-2" d="M488.2188,49.4187c.1025,4.2109.6152,5.5459,2.002,5.9561a11.2622,11.2622,0,0,0,2.5674.3086c.2568,0,.4111.1025.4111.3076,0,.3086-.3086.4111-.9248.4111-2.9268,0-4.98-.1543-5.4424-.1543s-2.6191.1543-4.93.1543c-.5127,0-.8213-.0518-.8213-.4111,0-.2051.1543-.3076.4111-.3076a7.3624,7.3624,0,0,0,2.1045-.3086c1.2842-.3594,1.541-1.8477,1.541-6.5205l.0508-29.4209c0-2.0029.1543-2.5674.5654-2.5674s1.2832,1.13,1.7969,1.6426c.7705.873,8.4209,9.14,16.3281,17.6123,5.083,5.4424,10.68,11.7061,12.3232,13.4014l-.5654-26.084c-.0508-3.3379-.41-4.4668-2.002-4.8779a13.7266,13.7266,0,0,0-2.5166-.2568c-.3594,0-.41-.1543-.41-.3594,0-.3086.41-.3594,1.0264-.3594,2.3105,0,4.7754.1543,5.34.1543s2.26-.1543,4.3652-.1543c.5645,0,.9238.0508.9238.3594,0,.2051-.2051.3594-.5645.3594a4.52,4.52,0,0,0-1.2324.1543c-1.6943.3594-1.9,1.4893-1.9,4.5693l-.1025,30.0889c0,3.3887-.1025,3.6455-.4619,3.6455-.4111,0-1.0273-.5645-3.748-3.2861-.5654-.5137-7.959-8.0615-13.4014-13.915-5.9561-6.418-11.7578-12.8877-13.4014-14.7363Z"/><path class="cls-2" d="M539.7608,41.5115c0,4.93,0,8.9854.2568,11.1426.1543,1.4893.4629,2.6182,2.0029,2.8242a22.43,22.43,0,0,0,2.3105.2051c.3076,0,.4111.1543.4111.3076,0,.2568-.2568.4111-.8223.4111-2.8232,0-6.0586-.1543-6.3154-.1543s-3.4912.1543-5.0312.1543c-.5654,0-.8223-.1025-.8223-.4111,0-.1533.1025-.3076.4111-.3076a7.9347,7.9347,0,0,0,1.54-.2051c1.0273-.2061,1.2842-1.335,1.4893-2.8242.2568-2.1572.2568-6.2129.2568-11.1426V32.4754c0-8.0107,0-9.4482-.1025-11.0908-.1025-1.7461-.6162-2.6191-1.7461-2.876a6.7722,6.7722,0,0,0-1.5918-.2051c-.2051,0-.41-.1025-.41-.3076,0-.3086.2559-.4111.8213-.4111,1.6943,0,4.9287.1543,5.1855.1543s3.4922-.1543,5.0322-.1543c.5645,0,.8213.1025.8213.4111,0,.2051-.2051.3076-.4111.3076a7.6523,7.6523,0,0,0-1.2832.1543c-1.3867.2568-1.7969,1.1289-1.8994,2.9268-.1035,1.6426-.1035,3.08-.1035,11.0908Z"/><path class="cls-2" d="M569.1788,50.1375c2.9785-6.88,9.8584-24.8,10.9883-28.4961a7.3929,7.3929,0,0,0,.4619-1.9512,1.2669,1.2669,0,0,0-.667-1.1816,6.4945,6.4945,0,0,0-1.9512-.2051c-.3086,0-.5654-.0518-.5654-.3076,0-.3086.3086-.4111,1.13-.4111,2.0537,0,4.416.1543,5.0322.1543.3076,0,2.5156-.1543,4.0049-.1543.5645,0,.873.1025.873.3594s-.2061.3594-.6162.3594a4.6581,4.6581,0,0,0-2.4648.6162c-.667.4619-1.4375,1.335-2.8242,4.8262-.5645,1.4375-3.1318,7.6-5.751,13.915-3.1318,7.4961-5.4424,13.042-6.623,15.5576-1.4375,3.0811-1.6436,3.9023-2.1562,3.9023-.6162,0-.873-.7187-1.8486-3.1836l-12.58-31.4746c-1.13-2.876-1.8994-3.44-3.6963-3.9541a7.9989,7.9989,0,0,0-1.9512-.2051c-.3086,0-.4111-.1543-.4111-.3594,0-.3086.5137-.3594,1.335-.3594,2.4648,0,5.3916.1543,6.0078.1543.5127,0,2.8232-.1543,4.7744-.1543.9248,0,1.3867.1025,1.3867.3594s-.1543.3594-.5137.3594a5.9933,5.9933,0,0,0-1.9512.2568,1.029,1.029,0,0,0-.667,1.0264,19.6993,19.6993,0,0,0,1.3857,4.2617Z"/><path class="cls-2" d="M596.129,32.4754c0-8.0107,0-9.4482-.1025-11.0908-.1025-1.7461-.5137-2.5674-2.208-2.9268a9.624,9.624,0,0,0-1.7461-.1543c-.2051,0-.41-.1025-.41-.3076,0-.3086.2568-.4111.8213-.4111,1.1807,0,2.5674,0,3.6963.0508l2.1055.1035c.3594,0,10.5771,0,11.7588-.0518a13.7343,13.7343,0,0,0,2.207-.2568c.2568-.0508.4629-.2568.72-.2568.1533,0,.2051.2061.2051.4619,0,.36-.2568.9756-.4111,2.4141-.0508.5127-.1543,2.7725-.2568,3.3887-.0508.2568-.1533.5645-.3594.5645-.3076,0-.41-.2568-.41-.667a5.5112,5.5112,0,0,0-.3086-1.8486c-.3594-.8213-.873-1.4375-3.6455-1.7461-.873-.1025-6.47-.1543-7.0342-.1543-.2051,0-.3086.1543-.3086.5137V34.2722c0,.3594.0518.5137.3086.5137.667,0,6.9834,0,8.1641-.1035,1.2324-.1025,1.9512-.2051,2.4131-.7187.3594-.41.5645-.667.7705-.667.1533,0,.2568.1025.2568.41s-.2568,1.1816-.4111,2.876c-.1025,1.0264-.2051,2.9268-.2051,3.2861,0,.41,0,.9756-.3594.9756-.2568,0-.3594-.2061-.3594-.4619a5.2235,5.2235,0,0,0-.2061-1.6943c-.2051-.72-.667-1.5918-2.67-1.7979-1.3857-.1533-6.47-.2568-7.3418-.2568a.3251.3251,0,0,0-.36.3594v4.5186c0,1.7461-.0508,7.7021,0,8.78.1543,3.543.9248,4.2109,5.957,4.2109a14.7084,14.7084,0,0,0,4.9287-.5654c1.335-.5645,1.9512-1.5918,2.3105-3.6963.1025-.5654.2051-.7705.4619-.7705.3086,0,.3086.4111.3086.7705,0,.41-.4111,3.9023-.668,4.98-.3594,1.335-.77,1.335-2.7725,1.335-3.8506,0-6.6748-.1025-8.6777-.1543-2.002-.1025-3.2344-.1543-4.0049-.1543-.1025,0-.9756,0-2.0537.0518-1.0273,0-2.208.1025-2.9775.1025-.5654,0-.8223-.1025-.8223-.4111,0-.1533.1025-.3076.4111-.3076a7.9347,7.9347,0,0,0,1.54-.2051c1.0273-.2061,1.2842-1.335,1.4893-2.8242.2568-2.1572.2568-6.2129.2568-11.1426Z"/><path class="cls-2" d="M627.4454,32.4754c0-8.0107,0-9.4482-.1025-11.0908-.1025-1.7461-.5137-2.5674-2.208-2.9268a9.624,9.624,0,0,0-1.7461-.1543c-.2051,0-.41-.1025-.41-.3076,0-.3086.2568-.4111.8213-.4111,2.3105,0,5.5449.1543,5.8018.1543.5654,0,4.4668-.1543,6.0586-.1543,3.2354,0,6.6758.3076,9.3965,2.2588a8.9868,8.9868,0,0,1,3.543,6.9834c0,3.8-1.5918,7.6-6.2129,11.8613,4.2109,5.3906,7.7021,9.9609,10.68,13.1445,2.7734,2.9258,4.98,3.4912,6.2646,3.6963a12.2911,12.2911,0,0,0,2.002.1543c.2568,0,.4629.1543.4629.3076,0,.3086-.3086.4111-1.2324.4111H656.918c-2.876,0-4.1592-.2568-5.4941-.9756-2.208-1.1807-4.0049-3.6973-6.9316-7.5479-2.1562-2.8242-4.57-6.2646-5.5967-7.6a.8282.8282,0,0,0-.668-.3076l-6.3154-.1025c-.2568,0-.3594.1543-.3594.41v1.2324c0,4.93,0,8.9854.2568,11.1426.1543,1.4893.4619,2.6182,2.0029,2.8242a22.4066,22.4066,0,0,0,2.3105.2051c.3076,0,.41.1543.41.3076,0,.2568-.2568.4111-.8213.4111-2.8242,0-6.0586-.1543-6.3154-.1543-.0518,0-3.2861.1543-4.8262.1543-.5654,0-.8223-.1025-.8223-.4111,0-.1533.1025-.3076.4111-.3076a7.9347,7.9347,0,0,0,1.54-.2051c1.0273-.2061,1.2842-1.335,1.4893-2.8242.2568-2.1572.2568-6.2129.2568-11.1426Zm4.1074,4.4668a.67.67,0,0,0,.3594.6162,14.1564,14.1564,0,0,0,5.3916.8213,6.6492,6.6492,0,0,0,3.8506-.9756c1.7979-1.2324,3.1328-4.0049,3.1328-7.9072,0-6.418-3.39-10.27-8.8828-10.27a15.4756,15.4756,0,0,0-3.44.3086.6188.6188,0,0,0-.4111.6162Z"/><path class="cls-2" d="M662.3545,55.7341c-.7187-.3594-.7705-.5645-.7705-1.9512,0-2.5664.2061-4.6211.2568-5.4424.0518-.5645.1543-.8213.4111-.8213.3076,0,.3594.1543.3594.5645a9.03,9.03,0,0,0,.1543,1.9c.77,3.7988,4.1582,5.2373,7.5986,5.2373,4.93,0,7.3428-3.543,7.3428-6.8291,0-3.543-1.4893-5.5967-5.9053-9.2422l-2.3105-1.9c-5.4424-4.4668-6.6748-7.65-6.6748-11.1416,0-5.4941,4.1074-9.2422,10.6289-9.2422a19.893,19.893,0,0,1,4.7754.5137,8.3956,8.3956,0,0,0,1.7969.2559c.41,0,.5137.1035.5137.36s-.2061,1.9512-.2061,5.4424c0,.8213-.1025,1.1807-.3594,1.1807-.3076,0-.3594-.2568-.41-.667a9.0166,9.0166,0,0,0-.668-2.5674c-.3076-.5654-1.6943-2.7217-6.418-2.7217-3.543,0-6.3154,2.208-6.3154,5.9561,0,2.9268,1.335,4.7754,6.2637,8.626l1.4375,1.13c6.06,4.7754,7.4971,7.959,7.4971,12.0664a10.6386,10.6386,0,0,1-4.3643,8.5234,13.5083,13.5083,0,0,1-7.7539,2.1563A15.5736,15.5736,0,0,1,662.3545,55.7341Z"/><path class="cls-2" d="M699.2159,41.5115c0,4.93,0,8.9854.2568,11.1426.1543,1.4893.4629,2.6182,2.0029,2.8242a22.43,22.43,0,0,0,2.3105.2051c.3076,0,.4111.1543.4111.3076,0,.2568-.2568.4111-.8223.4111-2.8232,0-6.0586-.1543-6.3154-.1543s-3.4912.1543-5.0312.1543c-.5654,0-.8223-.1025-.8223-.4111,0-.1533.1025-.3076.4111-.3076a7.9347,7.9347,0,0,0,1.54-.2051c1.0273-.2061,1.2842-1.335,1.4893-2.8242.2568-2.1572.2568-6.2129.2568-11.1426V32.4754c0-8.0107,0-9.4482-.1025-11.0908-.1025-1.7461-.6162-2.6191-1.7461-2.876a6.7722,6.7722,0,0,0-1.5918-.2051c-.2051,0-.41-.1025-.41-.3076,0-.3086.2559-.4111.8213-.4111,1.6943,0,4.9287.1543,5.1855.1543s3.4922-.1543,5.0322-.1543c.5645,0,.8213.1025.8213.4111,0,.2051-.2051.3076-.4111.3076a7.6523,7.6523,0,0,0-1.2832.1543c-1.3867.2568-1.7969,1.1289-1.8994,2.9268-.1035,1.6426-.1035,3.08-.1035,11.0908Z"/><path class="cls-2" d="M728.4288,41.5115c0,4.93,0,8.9854.2568,11.1426.1543,1.4893.4619,2.6182,2.002,2.8242a22.4458,22.4458,0,0,0,2.3115.2051c.3076,0,.41.1543.41.3076,0,.2568-.2568.4111-.8213.4111-2.8242,0-6.0586-.1543-6.3154-.1543s-3.4922.1543-5.0322.1543c-.5645,0-.8213-.1025-.8213-.4111,0-.1533.1025-.3076.41-.3076a7.9345,7.9345,0,0,0,1.541-.2051c1.0264-.2061,1.2832-1.335,1.4893-2.8242.2559-2.1572.2559-6.2129.2559-11.1426V19.7927l-7.5986.1025c-3.1836.0518-4.416.4111-5.2373,1.6426a9.0833,9.0833,0,0,0-.873,1.5918c-.1543.4111-.3076.5137-.5137.5137-.1533,0-.2568-.1543-.2568-.4619,0-.5137,1.0273-4.93,1.13-5.34.1025-.3086.3086-.9756.5137-.9756a9.58,9.58,0,0,0,2.2588.6162c1.4893.1533,3.44.2568,4.0566.2568H736.85a20.593,20.593,0,0,0,3.6455-.2568c.7705-.1025,1.2324-.2568,1.4375-.2568.2568,0,.2568.3076.2568.6162,0,1.54-.1543,5.083-.1543,5.6475,0,.4629-.1533.668-.3594.668-.2568,0-.3594-.1543-.41-.873l-.0518-.5645c-.1543-1.541-1.3867-2.7217-6.3154-2.8242l-6.47-.1025Z"/><path class="cls-2" d="M759.794,43.1033a10.89,10.89,0,0,0-1.1807-5.3906c-.3594-.8223-7.24-12.1182-9.0371-14.7881a14.3875,14.3875,0,0,0-3.4912-3.8,4.9114,4.9114,0,0,0-2.208-.8213c-.2568,0-.5137-.1025-.5137-.3594,0-.2051.2051-.3594.668-.3594.9756,0,4.8262.1543,5.083.1543.3594,0,2.3105-.1543,4.3125-.1543.5654,0,.668.1543.668.3594s-.3086.2568-.7705.4619a1.0394,1.0394,0,0,0-.667.9248,4.3875,4.3875,0,0,0,.667,2.002c.8213,1.4893,8.5234,14.7363,9.4482,16.2256.9756-2.1562,7.4961-13.4014,8.5234-15.0957a5.0127,5.0127,0,0,0,.8721-2.6191c0-.7187-.2051-1.2832-.8213-1.4375-.4619-.1543-.7705-.2568-.7705-.5137,0-.2051.3086-.3076.8223-.3076,1.335,0,2.9775.1543,3.3887.1543.3076,0,4.0049-.1543,4.98-.1543.3594,0,.667.1025.667.3076,0,.2568-.2559.4111-.667.4111a4.8906,4.8906,0,0,0-2.3623.7188,9.7729,9.7729,0,0,0-2.7207,2.6191,163.8348,163.8348,0,0,0-9.8076,16.3271,12.2942,12.2942,0,0,0-.77,5.1348v4.416c0,.8213,0,2.9775.1533,5.1348.1035,1.4893.5654,2.6182,2.1055,2.8242a22.43,22.43,0,0,0,2.3105.2051c.3086,0,.4111.1543.4111.3076,0,.2568-.2568.4111-.8223.4111-2.8232,0-6.0586-.1543-6.3154-.1543s-3.4912.1543-5.0312.1543c-.5654,0-.8223-.1025-.8223-.4111,0-.1533.1035-.3076.4111-.3076a7.9347,7.9347,0,0,0,1.54-.2051c1.0273-.2061,1.4893-1.335,1.5918-2.8242.1543-2.1572.1543-4.3135.1543-5.1348Z"/><path class="cls-2" d="M818.7315,16.866c11.5527,0,20.1787,7.291,20.1787,19.2549,0,11.501-8.1123,21-20.4873,21-14.0684,0-19.9219-10.9365-19.9219-20.1787C798.501,28.6238,804.56,16.866,818.7315,16.866ZM819.81,55.17c4.6211,0,14.1709-2.67,14.1709-17.6113,0-12.3232-7.4961-18.9473-15.6084-18.9473-8.5752,0-14.9932,5.6484-14.9932,16.8936C803.379,47.4675,810.5674,55.17,819.81,55.17Z"/><path class="cls-2" d="M849.7891,32.4754c0-8.0107,0-9.4482-.1025-11.0908-.1025-1.7461-.5137-2.5674-2.208-2.9268a9.624,9.624,0,0,0-1.7461-.1543c-.2051,0-.41-.1025-.41-.3076,0-.3086.2568-.4111.8213-.4111,1.1807,0,2.5674,0,3.6963.0508l2.1055.0518c1.0273,0,11.45.0518,12.6309,0a11.3381,11.3381,0,0,0,2.26-.2051c.3076-.1025.5137-.3086.7188-.3086s.3076.2061.3076.4619c0,.36-.2559.9756-.41,2.4141-.0518.5127-.1543,2.7725-.2568,3.3887-.0518.2568-.1543.5645-.4111.5645s-.3594-.2568-.3594-.6162a5.55,5.55,0,0,0-.4619-1.9512c-.3076-.667-1.4893-1.5918-3.4912-1.6426l-7.9072-.1543c-.3086,0-.4629.1543-.4629.5645V34.3748c0,.3076.0518.4619.36.4619l6.5723-.0508c.8721,0,1.5908,0,2.3105-.0518,1.2314-.1025,1.8994-.2568,2.3613-.9238.2051-.2568.3594-.5137.5645-.5137s.2568.1543.2568.41c0,.3086-.2568,1.1816-.41,2.876-.1025,1.0264-.2061,3.0811-.2061,3.44,0,.4619,0,.9756-.3594.9756-.2559,0-.3594-.2061-.3594-.4629a8.6431,8.6431,0,0,0-.3076-1.8477,3.1053,3.1053,0,0,0-2.67-1.8486c-1.2842-.1543-6.8809-.1543-7.7529-.1543-.2568,0-.36.1025-.36.4619v4.3643c0,4.93,0,8.9854.2568,11.1426.1543,1.4893.4629,2.6182,2.0029,2.8242a22.43,22.43,0,0,0,2.3105.2051c.3076,0,.4111.1543.4111.3076,0,.2568-.2568.4111-.8223.4111-2.8242,0-6.0586-.1543-6.3154-.1543s-3.4912.1543-5.0312.1543c-.5654,0-.8223-.1025-.8223-.4111,0-.1533.1025-.3076.4111-.3076a7.9347,7.9347,0,0,0,1.54-.2051c1.0273-.2061,1.2842-1.335,1.4893-2.8242.2568-2.1572.2568-6.2129.2568-11.1426Z"/><path class="cls-2" d="M893.8877,32.4754c0-8.0107,0-9.4482-.1025-11.0908-.1025-1.7461-.5137-2.5674-2.208-2.9268a9.6053,9.6053,0,0,0-1.7451-.1543c-.2061,0-.4111-.1025-.4111-.3076,0-.3086.2568-.4111.8213-.4111,2.3105,0,5.4434.1543,5.9053.1543s3.543-.1543,5.083-.1543c.5645,0,.8213.1025.8213.4111,0,.2051-.2051.3076-.41.3076a7.6614,7.6614,0,0,0-1.2842.1543c-1.3857.2051-1.7969,1.1289-1.8994,2.9268-.1025,1.6426-.1025,3.08-.1025,11.0908v7.1885c0,7.3936,1.6426,10.5771,3.8506,12.6816A10.0447,10.0447,0,0,0,909.959,55.17a10.7856,10.7856,0,0,0,8.0615-3.6973c2.3623-2.9258,2.9785-7.291,2.9785-12.5791v-6.418c0-8.0107,0-9.4482-.1035-11.0908-.1025-1.7461-.5127-2.5674-2.207-2.9268a9.624,9.624,0,0,0-1.7461-.1543c-.2051,0-.4111-.1025-.4111-.3076,0-.3086.2568-.4111.8223-.4111,2.3105,0,5.1338.1543,5.4424.1543.3594,0,2.7725-.1543,4.3125-.1543.5654,0,.8223.1025.8223.4111,0,.2051-.2061.3076-.4111.3076a7.6523,7.6523,0,0,0-1.2832.1543c-1.3867.3076-1.7979,1.1289-1.9,2.9268-.1025,1.6426-.1025,3.08-.1025,11.0908v5.4932c0,5.5459-.6162,11.707-4.7236,15.3525a15.0409,15.0409,0,0,1-10.5771,3.8c-1.7461,0-6.9316-.2051-10.5771-3.6455-2.5166-2.4131-4.4678-6.0078-4.4678-13.5039Z"/><path class="cls-2" d="M950.4131,41.5115c0,4.93,0,8.9854.2568,11.1426.1543,1.4893.4619,2.6182,2.002,2.8242a22.4458,22.4458,0,0,0,2.3115.2051c.3076,0,.41.1543.41.3076,0,.2568-.2568.4111-.8213.4111-2.8242,0-6.0586-.1543-6.3154-.1543s-3.4922.1543-5.0322.1543c-.5645,0-.8213-.1025-.8213-.4111,0-.1533.1025-.3076.41-.3076a7.9345,7.9345,0,0,0,1.541-.2051c1.0264-.2061,1.2832-1.335,1.4893-2.8242.2559-2.1572.2559-6.2129.2559-11.1426V19.7927l-7.5986.1025c-3.1836.0518-4.416.4111-5.2373,1.6426a9.0833,9.0833,0,0,0-.873,1.5918c-.1543.4111-.3076.5137-.5137.5137-.1533,0-.2568-.1543-.2568-.4619,0-.5137,1.0273-4.93,1.13-5.34.1025-.3086.3086-.9756.5137-.9756a9.58,9.58,0,0,0,2.2588.6162c1.4893.1533,3.44.2568,4.0566.2568H958.834a20.593,20.593,0,0,0,3.6455-.2568c.7705-.1025,1.2324-.2568,1.4375-.2568.2568,0,.2568.3076.2568.6162,0,1.54-.1543,5.083-.1543,5.6475,0,.4629-.1533.668-.3594.668-.2568,0-.3594-.1543-.41-.873l-.0518-.5645c-.1543-1.541-1.3867-2.7217-6.3154-2.8242l-6.47-.1025Z"/><path class="cls-2" d="M980.0342,18.8679c.6162-1.6943.8213-2.002,1.13-2.002s.5137.2568,1.13,1.8486c.77,1.9512,8.8311,23.1563,11.9629,30.9609,1.8486,4.57,3.3379,5.3916,4.416,5.6992a6.6286,6.6286,0,0,0,2.0537.3086c.3086,0,.5137.0508.5137.3076,0,.3086-.4619.4111-1.0273.4111-.77,0-4.5186,0-8.0605-.1025-.9756-.0518-1.541-.0518-1.541-.3594,0-.2061.1543-.3086.3594-.3594.3086-.1025.6162-.5654.3086-1.3867L986.504,41.5633a.4494.4494,0,0,0-.4619-.3086H975.003a.5408.5408,0,0,0-.5137.4111l-3.0811,9.0879a10.8533,10.8533,0,0,0-.7187,3.44c0,1.0273,1.0781,1.4893,1.9512,1.4893h.5137c.3594,0,.5127.1025.5127.3076,0,.3086-.3076.4111-.77.4111-1.2324,0-3.44-.1543-4.0049-.1543s-3.3887.1543-5.8027.1543c-.667,0-.9756-.1025-.9756-.4111,0-.2051.2061-.3076.4629-.3076.3594,0,1.0781-.0518,1.4883-.1025,2.3623-.3086,3.39-2.26,4.3135-4.8271Zm5.34,20.5391c.2568,0,.2568-.1543.2061-.3594l-4.8779-13.8643q-.3853-1.1543-.7705,0l-4.5186,13.8643c-.1025.2559,0,.3594.1543.3594Z"/><path class="cls-2" d="M1039.59,41.5115c0,4.93,0,8.9854.2568,11.1426.1543,1.4893.4619,2.6182,2.0029,2.8242a22.4066,22.4066,0,0,0,2.3105.2051c.3076,0,.41.1543.41.3076,0,.2568-.2568.4111-.8213.4111-2.8242,0-6.0586-.1543-6.3154-.1543s-3.4912.1543-5.0322.1543c-.5645,0-.8213-.1025-.8213-.4111,0-.1533.1025-.3076.4111-.3076a7.9347,7.9347,0,0,0,1.54-.2051c1.0264-.2061,1.2832-1.335,1.4893-2.8242.2568-2.1572.2568-6.2129.2568-11.1426V36.1209a.2963.2963,0,0,0-.3086-.3086h-21.7705a.2709.2709,0,0,0-.3086.3086v5.3906c0,4.93,0,8.9854.2568,11.1426.1543,1.4893.4629,2.6182,2.0029,2.8242a22.43,22.43,0,0,0,2.3105.2051c.3076,0,.4111.1543.4111.3076,0,.2568-.2568.4111-.8223.4111-2.8232,0-6.0586-.1543-6.3154-.1543s-3.4912.1543-5.0312.1543c-.5654,0-.8223-.1025-.8223-.4111,0-.1533.1025-.3076.4111-.3076a7.9347,7.9347,0,0,0,1.54-.2051c1.0273-.2061,1.2842-1.335,1.4893-2.8242.2568-2.1572.2568-6.2129.2568-11.1426V32.4754c0-8.0107,0-9.4482-.1025-11.0908-.1025-1.7461-.5137-2.5674-2.208-2.9268a9.624,9.624,0,0,0-1.7461-.1543c-.2051,0-.41-.1025-.41-.3076,0-.3086.2559-.4111.8213-.4111,2.3105,0,5.5449.1543,5.8018.1543s3.4922-.1543,5.0322-.1543c.5645,0,.8213.1025.8213.4111,0,.2051-.2051.3076-.4111.3076a7.6523,7.6523,0,0,0-1.2832.1543c-1.3867.2568-1.7969,1.1289-1.8994,2.9268-.1035,1.6426-.1035,3.08-.1035,11.0908v1.0781a.27.27,0,0,0,.3086.3076h21.7705a.27.27,0,0,0,.3086-.3076V32.4754c0-8.0107,0-9.4482-.1035-11.0908-.1025-1.7461-.5127-2.5674-2.207-2.9268a9.624,9.624,0,0,0-1.7461-.1543c-.2051,0-.4111-.1025-.4111-.3076,0-.3086.2568-.4111.8213-.4111,2.3115,0,5.5459.1543,5.8027.1543s3.4912-.1543,5.0313-.1543c.5654,0,.8223.1025.8223.4111,0,.2051-.2061.3076-.4111.3076a7.6523,7.6523,0,0,0-1.2832.1543c-1.3867.2568-1.7979,1.1289-1.9,2.9268-.1025,1.6426-.1025,3.08-.1025,11.0908Z"/><path d="M335.9366,203.3211H316.0958v12.8008h22.16v10h-34.4V172.2009h33.28v10h-21.04v11.2h19.8408Z"/><path d="M346.5752,226.1218V172.2009h14.24l11.2,19.76a156.2563,156.2563,0,0,1,8.8,18.48h.24a200.1531,200.1531,0,0,1-1.04-22.48v-15.76h11.2v53.9209h-12.8l-11.5205-20.8008a200.3271,200.3271,0,0,1-9.36-19.04l-.24.08c.32,7.12.48,14.72.48,23.5205v16.24Z"/><path d="M446.8155,223.6414a60.3372,60.3372,0,0,1-18.001,3.04c-9.84,0-16.96-2.4795-21.92-7.2793-4.96-4.6406-7.6807-11.6807-7.6006-19.6006.08-17.9209,13.12-28.1611,30.8008-28.1611,6.96,0,12.32,1.36,14.9609,2.6406l-2.5605,9.76a29.871,29.871,0,0,0-12.5605-2.32c-10.16,0-17.84,5.7607-17.84,17.44,0,11.12,6.96,17.6807,16.96,17.6807a16.34,16.34,0,0,0,6-.8v-11.28h-8.32V195.241h20.0811Z"/><path d="M468.5733,172.2009v53.9209h-12.24V172.2009Z"/><path d="M479.1329,226.1218V172.2009h14.24l11.2,19.76a156.2563,156.2563,0,0,1,8.8,18.48h.24a200.153,200.153,0,0,1-1.04-22.48v-15.76h11.2v53.9209h-12.8l-11.5205-20.8008a200.3271,200.3271,0,0,1-9.36-19.04l-.24.08c.32,7.12.48,14.72.48,23.5205v16.24Z"/><path d="M566.4122,203.3211H546.5713v12.8008h22.16v10h-34.4V172.2009h33.28v10h-21.04v11.2h19.8408Z"/><path d="M609.1329,203.3211H589.292v12.8008h22.16v10h-34.4V172.2009h33.28v10h-21.04v11.2h19.8408Z"/><path d="M619.7706,172.9207a107.1807,107.1807,0,0,1,16.24-1.12c8,0,13.6006,1.2,17.44,4.24,3.2,2.56,4.96,6.32,4.96,11.28a14.3085,14.3085,0,0,1-9.5205,13.28v.24c3.7607,1.52,5.8408,5.12,7.2,10.08,1.6807,6.08,3.36,13.12,4.4,15.2h-12.48c-.88-1.5205-2.16-5.92-3.76-12.5605-1.44-6.72-3.76-8.56-8.7207-8.64h-3.68v21.2h-12.08Zm12.08,23.2h4.8c6.08,0,9.6807-3.04,9.6807-7.76,0-4.96-3.36-7.44-8.96-7.5205a30.4159,30.4159,0,0,0-5.5205.4Z"/><path d="M679.45,172.2009v53.9209H667.21V172.2009Z"/><path d="M690.0088,226.1218V172.2009h14.24l11.2,19.76a156.2562,156.2562,0,0,1,8.8,18.48h.24a200.153,200.153,0,0,1-1.04-22.48v-15.76h11.2v53.9209h-12.8l-11.5205-20.8008a200.3271,200.3271,0,0,1-9.36-19.04l-.24.08c.32,7.12.48,14.72.48,23.5205v16.24Z"/><path d="M790.2491,223.6414a60.3372,60.3372,0,0,1-18.001,3.04c-9.84,0-16.96-2.4795-21.92-7.2793-4.96-4.6406-7.6807-11.6807-7.6006-19.6006.08-17.9209,13.12-28.1611,30.8008-28.1611,6.96,0,12.32,1.36,14.9609,2.6406l-2.5605,9.76a29.871,29.871,0,0,0-12.5605-2.32c-10.16,0-17.84,5.7607-17.84,17.44,0,11.12,6.96,17.6807,16.96,17.6807a16.34,16.34,0,0,0,6-.8v-11.28h-8.32V195.241h20.0811Z"/></g></svg>